<?xml version="1.0" encoding="UTF-8"?>
<svg id="Layer_1" data-name="Layer 1" xmlns="http://www.w3.org/2000/svg" >
  <defs>
    <style>
      .cls-1 {
        stroke: #000;
        stroke-miterlimit: 10;
      }
    </style>
  </defs>
  <path class="cls-1" fill="green" d="M333.59,78.97c-27.74,13.77-59.87,18.5-90.4,13.3-6.13-1.04-12.45-2.47-18.5-1-7.09,1.73-12.61,7.16-19.03,10.63-10.23,5.52-22.34,5.88-33.72,8.25-13.41,2.79-26.13,8.49-39.67,10.54-13.54,2.05-29-.4-37.67-11-1.76-2.15-3.26-4.64-5.64-6.07-2.35-1.41-5.2-1.59-7.88-2.18-9.71-2.14-17.4-9.9-27.05-12.26-4.65-1.14-9.5-.96-14.28-.77L.5,89.95V.5H333.59V78.97Z"/>
</svg>