<?xml version="1.0" encoding="UTF-8"?>
<svg id="Layer_1" data-name="Layer 1" xmlns="http://www.w3.org/2000/svg" viewBox="0 0 113.66 114.31">
  <defs>
    <style>
      .cls-1 {
        fill: "purple";
        stroke: #000;
        stroke-miterlimit: 10;
      }
    </style>
  </defs>
  <path fill="lightgrey" class="cls-1" d="M55.98,80.29c-.04,.76-.09,1.52-.14,2.28-.39,5.73-.73,46.8,13.13,24.82,2.19-3.47,2.58-7.74,2.87-11.84,.42-5.97,.75-11.94,.97-17.92,9.65-2.32,18.99-5.98,27.61-10.89,4.88-2.78,9.83-6.3,11.75-11.58,.92-2.52,1.07-5.25,.96-7.92-.15-3.71-.93-7.67-3.6-10.24-3.9-3.75-10.1-3.14-15.46-2.38-7.05,1.01-14.13,1.85-21.22,2.53-.35-9.8-.96-19.59-1.84-29.36-.21-2.29-.55-4.84-2.33-6.31-2.42-2-6.35-.78-8.26,1.72s-2.33,5.79-2.63,8.92c-.87,8.77-1.14,17.54-1.22,26.31l.25-.02c-2.83,.17-5.66,.32-8.49,.45-10.93,.47-23.47-1.31-34.21,1.16-24.3,5.58-12.24,30.96,6.06,36.59,6.85,2.11,13.96,3.3,21.11,3.76,5.17,.33,10.37,.27,15.53-.16l15.32-2.43c.22-.05,.44-.1,.65-.16"/>
</svg>